<?xml version="1.0" standalone="no"?>
<!DOCTYPE svg PUBLIC "-//W3C//DTD SVG 1.1//EN" "http://www.w3.org/Graphics/SVG/1.1/DTD/svg11.dtd">
<svg xmlns="http://www.w3.org/2000/svg">
<metadata>Generated by Fontastic.me</metadata>
<defs>
<font id="romah24" horiz-adv-x="512">
<font-face font-family="romah24" units-per-em="512" ascent="480" descent="-32"/>
<missing-glyph horiz-adv-x="512" />

<glyph glyph-name="angel" unicode="&#97;" d="M499 129c0 0-14 7-30 27-16 19-37 53-51 109-9 38-24 62-45 71-17 7-37 5-58-7l8-14c11 7 28 13 44 7 16-7 28-28 36-61 21-84 58-123 77-138-9-3-17-3-25-1-21 6-32 30-32 31l-7-4-8-3c1-1 11-23 32-34-6-1-12-1-17 0-24 7-39 32-39 32l-7-4-6-4c0-1 8-15 23-26-7-2-13-2-19 0-14 6-20 24-21 25l-17 128c-3 20-13 38-28 51-14 13-33 20-53 20-20 0-39-7-54-20-15-13-24-31-27-51l-18-129c-1-4-8-19-20-24-6-2-12-2-19 0 14 11 23 25 23 26l-13 8c0 0-15-25-39-31-5-2-11-2-17-1 21 11 31 33 31 34l-14 7c0-1-11-25-32-31-8-2-16-2-25 1 19 15 56 54 77 138 7 33 20 53 36 61 15 6 31 0 42-6l8 14c-21 11-40 13-57 6-20-9-36-33-45-71-13-56-34-90-50-109-16-20-30-27-30-27l-13-6 12-8c12-7 23-10 34-10 11-6 22-10 33-10 4 0 9 1 14 2 2 1 5 2 7 3 9-5 18-7 27-7 5 0 10 1 15 3 4 1 8 3 11 5l-11-75 227 0-10 76c3-3 6-5 10-6 5-2 11-3 16-3 8 0 17 2 27 7 2-1 4-2 7-3 5-1 9-2 14-2 11 0 22 4 33 10 11 0 22 3 34 10l12 8z m-164-87l-14 99-15-3 13-96-17 0-7 48-15-2 6-46-60 0 4 28-16 3-4-31-17 0 10 74-15 3-11-77-17 0 30 219c5 32 33 57 66 57 33 0 61-25 65-57l31-219z m-79 444c-47 0-84-22-84-51 0-10 4-20 13-28l10 12c-5 5-8 10-8 16 0 9 7 17 19 24 13 7 31 11 50 11 19 0 37-4 50-11 12-7 18-15 18-24 0-7-4-13-8-17l10-11c9 8 14 18 14 28 0 29-37 51-84 51z m0-36c-31 0-57-25-57-57 0-31 26-57 57-57 31 0 56 26 56 57 0 32-25 57-56 57z m0-98c-23 0-41 18-41 41 0 23 18 42 41 42 22 0 41-19 41-42 0-23-19-41-41-41z"/>
<glyph glyph-name="arrow-right" unicode="&#98;" d="M511 256c0 6-3 12-7 16l-127 131c-9 7-25 10-35 2-9-9-9-25 0-34l90-92-407 0c-13 0-24-10-24-23 0-12 11-23 24-23l407 0-90-91c-8-8-9-25 0-34 9-8 27-6 35 2l127 131c5 4 7 9 7 15z"/>
<glyph glyph-name="born" unicode="&#99;" d="M400 4c-33 0-60 24-63 55l-101 0c-3-31-30-55-63-55-35 0-63 27-63 62 0 34 28 62 63 62 20 0 38-9 50-23l52 32-105 66c-1 0-1 0-2 1-48 15-82 59-82 112l0 36-40 61c-1 0-2 0-4 0-11 0-20 9-20 20 0 11 9 20 20 20 12 0 21-9 21-20 0-6-2-10-6-14l39-59 179 0c3 13 14 24 28 26l0 116c0 4 3 7 6 7l20 0c25 0 48-6 68-15 1-1 1-1 2-1 28-14 51-35 67-61 0-1 0-1 0-1 1 0 1-1 1-1 13-22 20-49 20-77l0-37c0-53-34-97-82-112-1-1-1-1-2-1l-104-66 51-32c12 14 30 23 50 23 35 0 63-28 63-62 0-35-28-62-63-62z m-50 55c3-24 24-43 50-43 28 0 50 23 50 50 0 27-22 49-50 49-16 0-30-7-39-17l42-27c3-1 4-4 3-7-1-3-3-5-6-5l-50 0z m-177 56c-27 0-50-22-50-49 0-27 23-50 50-50 26 0 47 19 50 43l-50 0c-3 0-5 2-6 5-1 3 0 6 3 7l42 27c-9 10-23 17-39 17z m177-43l28 0-24 15c-2-5-4-10-4-15z m-114 0l101 0c0 8 3 15 6 22l-56 35-57-35c3-7 6-14 6-22z m-40 0l27 0c0 5-2 10-4 15z m5 126l86-54 85 54c-1 0-3 0-4 0l-163 0c-1 0-3 0-4 0z m-102 149l0-31c0-58 47-105 106-105l163 0c59 0 106 47 106 105l0 31-131 0c-3-16-17-27-34-27-17 0-31 11-34 27z m210 27c-12 0-21-9-21-21 0-11 9-21 21-21 12 0 21 10 21 21 0 4 0 7-2 9 0 1 0 1 0 1 0 0 0 0 0 0-2 4-5 7-9 9 0 0 0 0 0 0-3 2-7 2-10 2z m34-14l131 0c-1 21-6 41-16 59l-116-56c0-1 1-2 1-3z m-12 19c2-1 4-3 5-5l115 56c-13 21-32 38-54 49z m-15 7c1 0 2 0 3 0l66 99c-17 7-36 11-56 11l-13 0 0-110z m-274 54c-4 0-7-3-7-7 0-4 3-8 7-8 4 0 8 4 8 8 0 4-4 7-8 7z"/>
<glyph glyph-name="dead" unicode="&#100;" d="M421 58l0 285c0 91-74 165-165 165-91 0-165-74-165-165l0-285c-14-3-24-16-24-30l0-16c0-4 4-8 8-8l362 0c4 0 8 4 8 8l0 16c0 14-10 27-24 30z m8-38l-346 0 0 8c0 8 7 15 16 15l259 0c5 0 8 4 8 8 0 5-3 8-8 8l-252 0 0 284c0 82 67 149 150 149 82 0 150-67 150-149l0-284-16 0c-4 0-8-3-8-8 0-4 4-8 8-8l23 0c9 0 16-7 16-15z m-102 346l-47 0 0 48c0 4-4 7-8 7l-32 0c-4 0-8-3-8-7l0-48-47 0c-4 0-8-3-8-8l0-31c0-4 4-8 8-8l47 0 0-142c0-4 4-8 8-8l32 0c4 0 8 4 8 8l0 142 47 0c4 0 8 4 8 8l0 31c0 5-4 8-8 8z m-8-31l-47 0c-5 0-8-4-8-8l0-142-16 0 0 142c0 4-3 8-8 8l-47 0 0 16 47 0c5 0 8 3 8 7l0 48 16 0 0-48c0-4 3-7 8-7l47 0 0-16z"/>
<glyph glyph-name="facebook" unicode="&#101;" d="M290 426c-6-8-10-17-13-27-2-11-3-23-3-36 0-1 0-3 0-4 0-6 5-10 11-10 17 0 44 1 60 1l3 0 0-49c-6 0-14-1-22-1-12 0-25 0-33 0-6-1-11-6-11-12 0-20 1-92 1-160 1-33 1-66 1-90 0-12 0-21 1-28l-80-1c0 15 0 44 0 79 0 65-1 150-4 203 0 6-5 10-11 11-16 0-42 0-57 0l0 53c3 0 7 0 11 0 11 0 24 0 33 0 6 1 11 5 11 11 1 24 2 49 9 70 3 10 8 20 14 28 6 8 14 15 24 21 22 13 46 18 70 18 27 0 53-6 74-14 0-3 0-8-1-12-2-9-4-19-7-28-1-5-2-9-3-12-14 4-26 6-38 6-9 0-18-1-26-5-5-3-10-7-14-12z"/>
<glyph glyph-name="googleplus" unicode="&#102;" d="M259 223c-13-40-51-68-95-67-54 0-98 43-100 96-2 57 44 105 101 105 26 0 49-10 67-26 4-4 11-4 15 0l29 27c5 4 5 12 0 16-28 27-66 43-108 44-89 2-165-71-165-161-1-90 72-163 162-163 86 0 157 68 161 153 1 1 1 37 1 37l-147 0c-6 0-11-5-11-11l0-39c0-6 5-11 11-11z m202 58l0 38c0 6-4 10-10 10l-32 0c-6 0-10-4-10-10l0-38-39 0c-5 0-9-5-9-10l0-33c0-5 4-9 9-9l39 0 0-39c0-5 4-10 10-10l32 0c6 0 10 5 10 10l0 39 39 0c5 0 9 4 9 9l0 33c0 5-4 10-9 10l-39 0z"/>
<glyph glyph-name="handcuffs" unicode="&#103;" d="M499 174c0 43-25 80-61 99l0 40c0 9-7 16-16 16l-30 0 0 25c4 2 8 4 11 7 3 5 5 10 4 15l-3 19c-2 11-12 18-24 16-4 0-7-2-10-4l-20 12c0 0 0 0 1 0 1 6 0 11-2 16-3 5-7 9-12 10l-18 5c-11 3-22-4-25-16 0-1 0-2 0-3l-19-3c-5 10-17 15-27 11l-17-8c-9-4-13-16-9-26l-14-15-24 17c-7 5-17 3-22-5l-23-32c-40 5-82-11-107-47-34-48-24-113 21-150l13 18c-35 30-42 82-16 120 29 40 85 50 125 22 41-29 51-85 22-125-27-39-79-49-119-26l-13-18c51-30 116-18 150 31 25 36 26 80 7 116l23 33c5 8 4 18-4 23l-24 17 12 12c3-3 8-5 12-5 3 0 6 0 8 2l17 7c7 3 10 10 11 17l19 2c0 0 0-1 0-1 3-5 7-8 12-9l18-5c1 0 3-1 5-1 5 0 9 2 13 6l19-12c-1-3-1-6-1-9l3-18c1-8 8-14 15-16l0-25-27 0c-9 0-17-7-17-16l0-40c-36-19-61-56-61-99 0-59 46-107 103-111l0 22c-45 4-81 42-81 89 0 49 41 89 90 89 50 0 90-40 90-89 0-48-37-86-83-90l0-22c58 4 105 52 105 112z m-298 178c-4-5-10-6-14-3-5 3-6 10-3 14 3 3 6 4 10 3l9 13 7-4-9-13c1-3 2-7 0-10z m61 58l-17-8c-3-1-6 0-9 1l4 4c2 3 2 6 0 8-3 2-6 2-8 0l-1 0c1 3 2 5 5 6l17 8c1 1 2 1 3 1 3 0 5-1 7-4l-2 0c-4 0-6-4-5-7 0-3 3-5 6-5 0 0 0 0 0 0l3 1c0-2-1-4-3-5z m76 17c-3 1-6 1-8-2-2-3-1-7 2-8l2-2c-2-1-4-1-5-1l-19 5c-1 0-1 2-2 2l4 1c3 1 5 4 5 7-1 3-3 6-7 5l-5-1c2 4 5 7 9 7 1 0 1 0 2 0l18-5c2-1 4-3 5-5 1-1 1-3 1-4z m38-56l-3 19c0 0 0 1 0 1l1-1c1-1 2-1 4-1 2 0 4 1 5 3 1 3 1 6-2 8 0 0 0 1 1 1 0 0 1 0 2 0 5 0 9-3 10-8l2-18c1-2 0-5-1-7-1-1-2-1-3-1l0 4c0 3-3 5-6 5-3 0-6-2-6-5l0-5c-2 1-4 3-4 5z m11-88c-5 0-10 5-10 10 0 4 3 7 6 8l0 16 8 0 0-16c4-1 6-4 6-8 0-5-4-10-10-10z"/>
<glyph glyph-name="lens" unicode="&#104;" d="M486 89l-86 86c-5 6-13 9-21 9-7 0-13-2-19-7l-6-5-19 20c31 33 50 78 50 127 0 102-83 185-184 185-102 0-184-83-184-185 0-102 83-186 184-186 42 0 80 14 111 38l19-18-4-4c-6-5-10-13-11-22 0-9 4-17 10-23l91-86c5-6 13-9 20-9 8 0 16 3 21 9l28 28c12 12 12 31 0 43z m-285 385c85 0 154-69 154-155 0-86-69-155-154-155-85 0-154 69-154 155 0 86 69 155 154 155z m236-434l-90 86 32 28 86-86z"/>
<glyph glyph-name="meteo" unicode="&#105;" d="M471 220c-2 2-4 4-5 6-10 38-45 64-84 64-7 0-14-1-21-3-5-1-10 1-13 5-18 26-48 42-80 42-24 0-47-9-65-25-18-16-29-39-31-63-1-4-3-7-7-9-1-1-2-1-3-2-1-1-2-1-3-1-17-4-32-13-42-26-11-14-17-30-17-47 0-41 34-75 75-75l250 0c41 0 75 34 75 75 0 23-11 45-29 59m-371 59c0-15 6-29 16-40 10 8 21 14 33 17 4 27 18 52 38 70 1 1 2 2 3 3-9 6-20 9-31 9-32 0-59-27-59-59m59 90c7 0 12 6 12 12l0 33c0 7-5 12-12 12-6 0-12-5-12-12l0-33c0-6 6-12 12-12m-61-8c2-3 6-5 10-5 2 0 4 0 6 1 6 3 8 11 4 16l-16 29c-4 6-11 8-16 4-6-3-8-10-5-16l17-29m-62-25l29-16c2-1 4-2 6-2 4 0 8 2 10 6 3 6 1 13-4 16l-29 17c-6 3-13 1-16-5-3-5-2-12 4-16m-12-69l33 0c7 0 12 5 12 12 0 6-5 12-12 12l-33 0c-7 0-12-6-12-12 0-7 5-12 12-12m57-33c-3 5-11 7-16 4l-29-17c-6-3-7-10-4-16 2-4 6-6 10-6 2 0 4 1 6 2l29 16c5 4 7 11 4 17m123 123c2-1 4-1 6-1 4 0 8 2 10 5l17 29c3 6 1 13-4 16-6 4-13 2-17-4l-16-29c-3-5-1-13 4-16"/>
<glyph glyph-name="money" unicode="&#106;" d="M276 275l0 18c0 4-4 8-8 8-5 0-8-4-8-8l0-18-11 0 0 18c0 4-4 8-8 8-5 0-8-4-8-8l0-18c-14-4-25-16-25-32l0-36c0-18 14-32 32-32l20 0 0-68-11 0 0 48c0 4-4 8-8 8l-25 0c-4 0-8-4-8-8l0-32c0-15 11-28 25-31l0-20c0-5 3-8 8-8 4 0 8 3 8 8l0 19 11 0 0-19c0-5 3-8 8-8 4 0 8 3 8 8l0 20c14 3 25 16 25 31l0 36c0 18-15 32-32 32l-20 0 0 68 11 0 0-47c0-5 3-8 8-8l24 0c5 0 9 3 9 8l0 31c0 16-11 28-25 32z m-52-68l0 36c0 6 4 12 9 14l0-64c-5 3-9 8-9 14z m0-84l0 23 9 0 0-37c-5 3-9 8-9 14z m60 36l0-36c0-6-3-11-8-14l0 64c5-2 8-8 8-14z m0 61l-8 0 0 37c5-2 8-8 8-14z m140-140l-10 4c-8 4-13 13-13 22l0 116c0 64-39 118-93 139 5 5 9 12 9 20l0 6c0 14-12 26-26 27 2 2 4 4 6 7 11 14 16 33 16 54 0 14-2 22-8 27-8 7-18 5-29 2 0 0 0 0 0 0-6 4-13 6-20 6-7 0-14-2-20-6 0 0 0 0 0 0-11 3-21 5-29-2-6-5-8-13-8-27 0-21 5-40 16-54 2-3 4-5 6-7-14-1-26-13-26-27l0-6c0-8 4-15 9-20-54-21-93-75-93-139l0-116c0-9-5-17-13-22l-10-4c-13-7-22-22-22-37 0-23 18-41 40-41l300 0c22 0 40 18 40 41 0 15-9 30-22 37z m-206 409c0 1 1 1 2 1 4 0 9-1 13-2 1 0 2-1 4-1 2-1 5 0 7 2 3 3 7 5 12 5 5 0 9-2 12-5 2-2 5-3 7-2 2 0 3 1 4 1 6 1 14 3 15 1 1 0 3-2 3-14 0-34-18-61-41-61-23 0-41 27-41 61 0 12 2 14 3 14z m4-118c-6 0-10 4-10 10l0 6c0 5 4 10 10 10l68 0c6 0 10-5 10-10l0-6c0-6-4-10-10-10z m184-352l-300 0c-13 0-24 10-24 24 0 9 5 18 13 22l10 5c13 6 22 21 22 36l0 116c0 73 58 132 129 132 71 0 129-59 129-132l0-116c0-15 9-30 22-36l10-5c8-4 13-13 13-22 0-14-11-24-24-24z"/>
<glyph glyph-name="photo" unicode="&#107;" d="M318 319c-52 0-95-44-95-97 0-53 43-97 95-97 52 0 95 44 95 97 0 53-43 97-95 97z m0-171c-40 0-73 33-73 74 0 41 33 74 73 74 40 0 72-33 72-74 0-41-32-74-72-74z m164 235l-226 0 0 9 62 0 0 59-168 0 0-59 43 0 0-9-163 0c-13 0-23-11-23-24l0-274c0-13 10-24 23-24l452 0c13 0 23 11 23 24l0 274c0 13-10 24-23 24z m-386-295l-57 0 0 21 57 0z m70 183l-121 0 0 68 121 0z m152-178c-70 0-126 58-126 129 0 71 56 128 126 128 69 0 126-57 126-128 0-71-57-129-126-129z"/>
<glyph glyph-name="pinterest" unicode="&#108;" d="M400 455c-34 33-81 51-133 51-78 0-127-32-154-60-33-34-52-78-52-123 0-55 23-98 62-114 3-1 5-2 8-2 8 0 14 6 17 14 1 5 4 18 5 23 3 10 1 15-5 23-11 13-17 29-17 49 0 61 45 126 129 126 66 0 107-38 107-99 0-38-8-74-23-100-11-19-29-41-57-41-12 0-23 5-30 14-6 9-8 19-6 30 3 13 7 26 11 39 7 23 14 45 14 63 0 30-18 50-45 50-35 0-62-36-62-81 0-22 6-39 9-45-5-18-31-129-35-150-3-12-20-108 8-116 32-8 60 85 63 96 2 8 10 41 15 61 16-15 40-25 64-25 45 0 86 21 115 58 27 36 43 86 43 142 0 43-19 86-51 117z"/>
<glyph glyph-name="play" unicode="&#109;" d="M256 507c-138 0-251-113-251-251 0-138 113-251 251-251 138 0 251 113 251 251 0 138-113 251-251 251z m0-25c125 0 226-101 226-226 0-125-101-226-226-226-125 0-226 101-226 226 0 125 101 226 226 226z m-63-113l0-226 201 113z"/>
<glyph glyph-name="twitter" unicode="&#110;" d="M455 345c0-136-103-294-292-294-58 0-112 18-157 47 8-1 16-2 25-2 48 0 92 17 127 45-45 0-83 30-96 71 6-1 13-2 19-2 10 0 19 2 27 4-47 10-82 51-82 101l0 2c14-8 30-13 47-13-28 18-46 50-46 86 0 19 5 36 14 52 50-63 126-104 211-108-2 7-2 15-2 23 0 57 45 103 102 103 30 0 56-12 75-32 23 5 45 13 65 25-8-24-24-44-45-57 21 2 41 8 59 16-14-21-31-39-51-53 0-5 0-9 0-14z"/>
<glyph glyph-name="google-plus" unicode="&#111;" d="M338 282l-176 0 0-63 110 0c-5-37-38-73-94-73-61 0-110 49-110 110 0 61 49 110 110 110 26 0 52-10 72-27l7-6 46 42-9 8c-31 29-73 46-116 46-96 0-173-78-173-173 0-95 77-173 173-173 119 0 162 90 162 173 0 6-1 11-1 17z m127 0l0 42-63 0 0-42-41 0 0-63 41 0 0-41 63 0 0 41 42 0 0 63z"/>
<glyph glyph-name="youtube" unicode="&#112;" d="M390 398l-268 0c-37 0-66-30-66-66l0-152c0-36 29-66 66-66l268 0c37 0 66 30 66 66l0 152c0 36-29 66-66 66z m-58-143l-113-72c-2-1-3-1-5-1-1 0-2 0-4 1-2 1-4 4-4 7l0 145c0 3 2 6 4 7 3 1 6 1 9 0l113-72c2-2 3-5 3-7 0-3-1-6-3-8z"/>
<glyph glyph-name="facebook-1" unicode="&#113;" d="M343 324l-64 0 0 29c0 13 9 17 15 17l45 0 0 59-65 0c-59 0-70-44-70-73l0-32-46 0 0-60 46 0 0-181 75 0 0 181 58 0z"/>
<glyph glyph-name="twitter-1" unicode="&#114;" d="M437 363c-13-6-24-6-36 0 16 9 16 15 22 32-14-8-30-14-47-18-13 15-32 24-53 24-41 0-74-33-74-74 0-6 1-11 2-17-61 3-115 33-152 77-6-11-9-23-9-37 0-25 13-48 32-61-12 0-23 4-33 9 0 0 0 0 0-1 0-35 25-65 59-72-11-3-22-3-33-1 9-29 36-50 68-51-31-25-70-35-108-30 32-21 71-33 112-33 135 0 209 111 209 209 0 3 0 6 0 9 14 10 32 20 41 35z"/>
<glyph glyph-name="instagram" unicode="&#115;" d="M359 512l-207 0c-84 0-152-68-152-152l0-207c0-84 68-152 152-152l207 0c84 0 152 68 152 152l0 207c0 84-68 152-152 152z m100-359c0-55-45-100-100-100l-207 0c-55 0-101 45-101 100l0 207c0 55 46 101 101 101l207 0c55 0 100-46 100-101l0-207z m-204 236c-72 0-132-60-132-132 0-73 60-133 132-133 73 0 133 60 133 133 0 72-60 132-133 132z m0-213c-44 0-80 36-80 81 0 44 36 80 80 80 45 0 81-36 81-80 0-45-36-81-81-81z m164 212c0-18-14-32-31-32-18 0-32 14-32 32 0 17 14 31 32 31 17 0 31-14 31-31z"/>
<glyph glyph-name="pinterest-p" unicode="&#116;" d="M73 341c0 21 4 40 11 59 7 18 17 34 29 47 13 14 27 25 44 35 16 10 34 18 53 23 19 5 38 7 57 7 31 0 59-6 84-19 26-13 47-31 64-55 16-24 24-52 24-82 0-19-2-36-6-54-3-18-9-34-17-51-8-16-17-30-28-42-12-13-25-22-42-30-16-7-34-11-54-11-13 0-26 3-38 9-13 7-22 15-28 26-2-8-4-19-8-33-3-14-5-23-6-27-1-4-3-11-6-20-3-9-6-16-8-20-2-4-5-10-9-18-4-8-8-15-13-22-5-7-11-15-18-25l-4-1-2 2c-3 30-5 48-5 54 0 18 2 37 7 59 4 22 10 49 19 82 8 33 13 53 14 58-6 13-9 29-9 49 0 15 5 30 15 44 10 14 23 21 38 21 11 0 21-4 27-12 6-7 10-17 10-29 0-12-4-31-13-54-8-24-12-42-12-54 0-12 4-22 12-30 9-8 19-12 32-12 10 0 20 3 29 8 9 4 16 11 22 19 6 8 11 17 16 27 5 10 8 21 11 32 3 11 4 21 6 31 1 10 2 20 2 29 0 33-11 58-32 77-21 18-48 27-81 27-38 0-70-12-96-37-25-24-38-56-38-93 0-9 1-17 4-25 2-8 5-14 7-18 3-5 6-9 8-13 2-4 4-7 4-9 0-5-2-12-5-21-3-8-6-13-10-13-1 0-2 1-5 1-10 3-18 8-26 16-8 8-13 17-17 27-5 10-8 21-10 31-2 10-3 21-3 30z"/>
<glyph glyph-name="arrow-down" unicode="&#117;" d="M431 330l-38 32c-2 1-4 1-6 1-2 0-3-1-5-2l-126-145-126 145c-2 1-4 2-5 2-2 0-4 0-6-1l-38-32c-2-1-3-3-3-5 0-2 1-4 2-5l170-192c2-1 4-2 6-2 2 0 4 1 6 2l170 192c1 1 2 3 2 5 0 2-1 4-3 5z"/>
<glyph glyph-name="icon-close-02" unicode="&#118;" d="M487 429l-58 58-173-174-173 174-58-58 174-173-174-173 58-58 173 174 173-174 58 58-174 173z"/>
<glyph glyph-name="icon-arrow-left" unicode="&#119;" d="M35 265l151-141 24 25-105 96 372 0 0 43-373 0 106 96-24 22z"/>
<glyph glyph-name="icon-arrow-right" unicode="&#120;" d="M322 406l-23-22 106-96-373 0 0-43 371 0-104-96 23-25 151 141z"/>
<glyph glyph-name="icon-simple-arrow-bottom" unicode="&#121;" d="M492 355l-33 38-203-236-203 236-33-38 236-274z"/>
<glyph glyph-name="icon-simple-arrow-left" unicode="&#122;" d="M363 20l38 33-236 203 236 203-38 33-274-236z"/>
<glyph glyph-name="icon-simple-arrow-right" unicode="&#65;" d="M160 20l-39 33 236 203-236 203 39 33 273-236z"/>
<glyph glyph-name="icon-simple-arrow-top" unicode="&#66;" d="M20 162l33-38 203 236 203-236 33 38-236 274z"/>
<glyph glyph-name="cart" unicode="&#67;" d="M145 170l278 35 82 245-425 0-9 35-67 0 0-35 39 0 67-267 0-86 318 0 0 35-283 0z m-56 245l367 0-12-36-347 0z m17-71l327 0-36-107-256-32z m110-282c0-20-16-35-35-35-20 0-36 15-36 35 0 19 16 35 36 35 19 0 35-16 35-35z m176 0c0-20-15-35-35-35-19 0-35 15-35 35 0 19 16 35 35 35 20 0 35-16 35-35z"/>
<glyph glyph-name="icon-pdf" unicode="&#68;" d="M48 510c-3 0-4-2-4-4l0-250 424 0 0 127-126 0c-3 0-5 2-5 4l0 123z m306 0l0-111 114 0z m-266-305l0-93 25 0 0 31 15 0c7 0 13 0 18 2 4 2 8 5 12 9 3 2 5 6 6 9 2 4 3 8 3 12 0 6-1 11-4 14-2 4-4 7-8 10-3 2-7 3-11 4-4 1-9 2-15 2z m96 0l0-93 34 0c7 0 13 1 19 2 5 1 11 3 15 6 6 3 12 8 16 15 4 7 6 15 6 24 0 8-2 16-6 23-4 7-9 12-15 16-4 2-9 4-14 5-6 1-13 2-20 2l-35 0z m109 0l0-93 24 0 0 40 40 0 0 18-40 0 0 17 43 0 0 18z m-180-18l4 0c4 0 7 1 10 0 2 0 5 0 7-1 2-1 4-2 5-4 2-2 3-4 3-7 0-3-1-5-1-7-1-1-2-3-4-5-2-1-4-2-7-3-2 0-6 0-10 0l-7 0z m95 0l6 0c6 0 10 0 12 0 3-1 6-1 8-3 5-2 9-5 11-10 2-4 4-9 4-15 0-7-2-12-4-16-2-4-5-7-10-10-2-1-5-2-8-3-2 0-7 0-13 0l-6 0z m-164-123l0-59c0-2 1-4 4-4l416 0c2 0 4 2 4 4l0 59z"/>
<glyph glyph-name="icon-outline-email-02" unicode="&#69;" d="M494 418l-481 0c-6 0-10-4-10-10l0-307c0-5 4-10 10-10l481 0c5 0 10 5 10 10l0 307c0 6-5 10-10 10z m-26-20l-215-195-214 195z m-445-12l162-148-162-115z m461-263l-99 69c-4 4-10 3-14-2-3-4-2-11 3-14l92-65-425 0 159 113 47-42c1-2 4-3 6-3 3 0 5 1 7 3l224 204z m-134 94l-7 5c-5 4-11 3-14-2-3-4-2-11 2-14l7-5c2-1 4-1 6-1 3 0 6 1 8 4 3 4 2 10-2 13z"/>
<glyph glyph-name="icon-outline-facebook-02" unicode="&#70;" d="M327 398l48 0c10 0 19 8 19 18l0 73c0 10-9 18-19 18l-66 0c-1 0-2 0-4 0-12 0-56-2-90-32-38-33-34-73-33-82l0-48-48 0c-10 0-18-8-18-18l0-79c0-10 8-18 18-18l45 0 0-208c0-10 9-18 19-18l95 0c10 0 19 8 19 18l0 207 53 0c10 0 18 7 19 16l9 80c1 5-1 10-4 14-4 3-9 6-14 6l-63 0 0 40c0 8 2 13 15 13z m-26-73l71 0-9-76-62 0c-6 0-11-5-11-10l0-215-89 0 0 216c0 5-5 10-11 10l-53 0 0 75 56 0c6 0 10 4 10 10l0 58c0 1 0 2 0 2-1 6-5 38 26 65 29 25 66 27 76 27 2 0 3 0 3 0 0 0 0 0 0 0l64 0 0-69-45 0c-23 0-37-12-37-33l0-50c0-6 5-10 11-10z m-79-156c-6 0-11-4-11-10l0-5c0-5 5-10 11-10 6 0 10 5 10 10l0 5c0 6-4 10-10 10z m0-37c-6 0-11-4-11-10l0-76c0-5 5-10 11-10 6 0 10 5 10 10l0 76c0 6-4 10-10 10z"/>
<glyph glyph-name="icon-outline-google-plus-02" unicode="&#71;" d="M441 173l-40 0c-12 0-22 10-22 21l0 20-20 0c-12 0-22 10-22 22l0 40c0 12 10 21 22 21l20 0 0 20c0 12 10 21 22 21l40 0c12 0 22-9 22-21l0-20 20 0c12 0 22-9 22-21l0-40c0-12-10-22-22-22l-20 0 0-20c0-11-10-21-22-21z m-82 104c-1 0-2 0-2-1l0-40c0-1 1-2 2-2l30 0c6 0 10-4 10-10l0-30c0-1 1-1 2-1l40 0c1 0 2 0 2 1l0 30c0 6 4 10 10 10l30 0c1 0 2 1 2 2l0 40c0 1-1 1-2 1l-30 0c-6 0-10 5-10 10l0 30c0 1-1 2-2 2l-40 0c-1 0-2-1-2-2l0-30c0-5-4-10-10-10z m-189-185c-45 0-89 17-120 48-31 31-48 73-48 117 1 45 18 86 50 117 31 30 72 47 116 47 23 0 43-4 61-12 7-3 19-9 25-12 6-4 21-14 23-16 5-3 8-9 9-15 1-7-2-13-6-17l-38-37c-8-8-19-9-28-3l-12 9c-10 6-22 9-34 9-18 0-35-7-48-20-27-27-28-74-1-101 13-13 32-21 51-21 19 0 36 7 48 20 1 1 2 2 3 4l-49 0c-12 0-22 9-22 21l0 45c0 12 10 21 22 21l133 0c10 0 19-7 21-17 0-2 1-9 2-12 0-9 0-27-1-35-2-35-16-67-40-93-29-30-72-47-117-47z m-2 309c-39 0-75-15-102-41-28-27-43-63-44-103 0-39 15-76 42-103 27-27 66-43 106-43 40 0 77 16 102 42 21 22 34 50 35 80 1 9 1 25 1 33-1 1-1 6-2 9 0 0 0 0 0 0 0 1-1 2-1 2l-133 0c-1 0-2-1-2-2l0-45c0-1 1-2 2-2l67 0c4 0 7-1 9-4 2-3 2-7 1-10-4-7-10-15-16-23-16-16-39-25-63-25-25 0-48 9-65 26-16 17-26 40-26 65 1 24 10 48 27 64 16 16 39 26 62 26 16 0 31-5 44-13 0 0 1 0 1 0l13-9c0 0 1 0 2 1l38 37c0 0 0 1 0 1 0 0 0 1-1 1 0 0 0 0 0 0-4 3-17 12-21 15-5 3-17 8-23 11-15 7-33 10-53 10z m106-153l-4 0c-6 0-11 5-11 10 0 6 5 10 11 10l4 0c5 0 10-4 10-10 0-5-5-10-10-10z m-34 0l-51 0c-5 0-10 5-10 10 0 6 5 10 10 10l51 0c6 0 10-4 10-10 0-5-4-10-10-10z"/>
<glyph glyph-name="icon-outline-heart-02" unicode="&#72;" d="M361 458c-42 0-80-17-108-48-27 31-66 48-108 48-80 0-145-64-145-143 0-42 16-82 48-120 26-31 58-54 81-71l4-3c48-35 52-37 91-60 7-4 15-8 24-14 2 0 3-1 5-1 2 0 4 1 5 1 10 6 18 10 24 14 39 23 43 25 92 60l3 3c23 17 55 40 82 71 31 38 47 78 47 120 0 79-65 143-145 143z m4-318l-3-3c-48-35-52-37-90-59-5-3-12-6-19-10-7 4-13 7-19 10-38 22-42 24-89 59l-4 3c-45 33-121 89-121 175 0 68 56 123 125 123 40 0 76-18 100-49 2-3 5-4 8-4 3 0 6 1 8 4 24 31 60 49 100 49 69 0 125-55 125-123 0-86-76-142-121-175z m73 235c-4 4-10 5-14 2-5-4-5-10-2-14 12-15 18-32 18-50 0-6 5-10 10-10 6 0 10 4 10 10 0 22-8 45-22 62z m-34 27c-4 2-8 4-12 5-6 2-11-1-13-6-2-5 1-11 6-13 4-1 7-2 10-4 2-1 3-1 5-1 4 0 7 2 9 5 2 5 0 11-5 14z"/>
<glyph glyph-name="icon-outline-instagram-02" unicode="&#73;" d="M355 504l-203 0c-83 0-150-67-150-148l0-201c0-81 67-147 150-147l203 0c83 0 150 66 150 147l0 201c0 81-67 148-150 148z m130-349c0-70-58-128-130-128l-203 0c-72 0-130 58-130 128l0 201c0 71 58 128 130 128l203 0c72 0 130-57 130-128z m-130 292l-203 0c-51 0-93-41-93-91l0-201c0-50 42-91 93-91l203 0c51 0 92 41 92 91l0 201c0 50-41 91-92 91z m72-292c0-39-32-71-72-71l-203 0c-40 0-72 32-72 71l0 201c0 39 32 71 72 71l203 0c40 0 72-32 72-71z m-174 228c-71 0-129-57-129-127 0-71 58-128 129-128 72 0 130 57 130 128 0 70-58 127-130 127z m0-235c-60 0-109 48-109 108 0 59 49 108 109 108 61 0 110-49 110-108 0-60-49-108-110-108z m0 180c-40 0-73-32-73-72 0-40 33-73 73-73 41 0 74 33 74 73 0 40-33 72-74 72z m0-125c-29 0-53 23-53 53 0 29 24 52 53 52 30 0 54-23 54-52 0-30-24-53-54-53z m123 204c-17 0-31-14-31-31 0-17 14-30 31-30 17 0 31 13 31 30 0 17-14 31-31 31z m0-42c-6 0-11 5-11 11 0 6 5 11 11 11 6 0 11-5 11-11 0-6-5-11-11-11z m-139-310l-94 0c-6 0-10-4-10-10 0-5 4-10 10-10l94 0c6 0 10 5 10 10 0 6-4 10-10 10z m39 0l-6 0c-6 0-11-4-11-10 0-5 5-10 11-10l6 0c5 0 10 5 10 10 0 6-5 10-10 10z"/>
<glyph glyph-name="icon-outline-pinterest-02" unicode="&#74;" d="M398 454c-35 33-82 52-134 52-79 0-128-33-155-61-34-34-53-80-53-125 0-58 24-103 65-120 4-2 8-2 11-2 9 0 16 3 21 9-8-33-16-69-19-79-1-5-6-32-7-60-2-38 5-59 22-64 2-1 5-1 7-1 15 0 31 15 45 45 11 22 19 47 21 55 1 6 6 26 11 44 16-10 36-16 55-16 47 0 89 21 118 59 28 37 44 88 44 144 0 44-19 88-52 120z m-255-141c0 54 40 111 113 111 59 0 93-32 93-85 0-36-7-69-20-92-9-16-24-34-46-34-9 0-17 3-21 9-5 6-6 13-4 21 2 12 6 24 10 37 7 23 14 45 14 63 0 34-22 58-54 58-38 0-69-38-69-87 0-21 5-37 8-45l-2-7c0-1 0-3-1-5-1 5-4 10-8 14-9 11-13 24-13 42z m248-110c-26-34-62-52-103-52-19 0-41 8-54 21-3 2-6 3-10 2-3-1-6-3-6-7-9-32-14-52-15-58 0-1-8-27-20-52-13-27-23-35-29-34-3 1-9 12-8 45 1 23 6 49 7 55 4 18 24 103 32 135l2 10c0 2 0 4-1 6-2 5-7 20-7 40 0 37 22 67 49 67 21 0 34-15 34-38 0-15-6-36-13-58-4-12-8-25-10-37-4-14-1-28 7-38 9-11 22-17 37-17 25 0 46 15 63 44 15 26 23 63 23 102 0 31-10 58-31 77-20 19-48 28-82 28-50 0-81-22-99-42-21-24-34-56-34-89 0-22 6-40 18-55 4-5 5-6 4-13 0 0-1 0-1 0l0-1c-1-5-4-16-5-20 0-3-2-6-7-6-1 0-2 0-3 0-34 14-53 52-53 102 0 40 17 80 47 111 24 25 68 55 141 55 47 0 90-17 120-47 29-28 46-66 46-105 0-52-14-98-39-131z m-155 99c-5 2-11-1-12-6l-11-38c-2-5 1-10 6-12 1 0 2 0 3 0 4 0 8 2 10 7l10 37c2 5-1 11-6 12z m10 34c-6 2-11-1-13-6l-1-5c-2-6 1-11 7-13 1 0 2 0 2 0 5 0 9 3 10 7l1 5c2 5-1 11-6 12z"/>
<glyph glyph-name="icon-outline-print-02" unicode="&#75;" d="M460 326l-30 0 0 72c0 5-4 9-9 9l-40 0 0 78c0 5-4 9-9 9l-237 0c-5 0-9-4-9-9l0-78-41 0c-5 0-9-4-9-9l0-72-29 0c-25 0-45-20-45-44l0-206c0-5 4-9 9-9l115 0 0-36c0-4 4-8 9-8l237 0c5 0 9 4 9 8l0 36 114 0c5 0 9 4 9 9l0 206c0 24-19 44-44 44z m-48 63l0-63-31 0 0 63z m-49 87l0-150-219 0 0 150z m-268-87l31 0 0-63-31 0z m31-266l-19 0c-7 0-12 5-12 12 0 6 5 12 12 12l19 0z m18-83l0 107 219 0 0-107z m237 107l19 0c7 0 12-6 12-12 0-7-5-12-12-12l-19 0z m105-62l-105 0 0 20 19 0c17 0 30 13 30 30 0 16-13 30-30 30l-293 0c-17 0-31-14-31-30 0-17 14-30 31-30l19 0 0-20-106 0 0 197c0 14 12 26 27 26l413 0c15 0 26-12 26-26z m-156-3l-153 0c-5 0-9-4-9-8 0-5 4-9 9-9l153 0c5 0 9 4 9 9 0 4-4 8-9 8z m0 39l-153 0c-5 0-9-4-9-9 0-5 4-9 9-9l153 0c5 0 9 4 9 9 0 5-4 9-9 9z m122 154l-103 0c-5 0-9-4-9-9 0-5 4-9 9-9l103 0c5 0 9 4 9 9 0 5-4 9-9 9z m-127-1c-3 2-7 2-10-1-3-2-4-6-3-9 1-4 4-6 7-6 4-1 8 1 10 5 1 4 0 9-4 11z"/>
<glyph glyph-name="icon-outline-twitter-02" unicode="&#76;" d="M500 407c-4 5-10 7-16 6 3 5 5 10 6 14 2 7 0 15-6 19-5 5-14 5-20 1-14-8-30-14-46-18-21 18-48 28-75 28-63 0-113-50-113-110 0-1 0-1 0-2-64 8-123 40-163 88-4 5-10 7-15 7-6-1-11-4-14-9-10-16-16-36-16-55 0-17 4-34 12-49-1 0-2-1-4-1-5-3-8-9-8-15 0 0 0-1 0-1 0-32 13-61 37-82-4-4-5-10-3-16 10-29 32-53 60-66-22-10-47-15-73-15-7 0-14 0-20 1-9 1-16-4-19-11-3-8 0-16 7-21 47-29 101-44 156-44 109 0 177 50 215 92 47 52 74 120 74 188 0 2 0 3 0 4 18 13 33 29 45 47 4 6 4 14-1 20z m-60-55c-2-2-4-5-4-8 0-2 0-5 0-8 0-63-25-127-69-176-35-38-99-85-200-85-48 0-96 13-137 37 4 0 9-1 13-1 37 0 73 10 103 29 4 2 6 6 5 10-1 3-4 7-8 7-31 7-56 29-67 58 2-1 3-1 5-1 5-1 9 2 11 7 1 4-1 9-5 11-27 16-45 44-45 75 3-2 7-3 12-5 4-1 9 0 11 4 3 3 2 8-1 12-14 16-22 37-22 58 0 15 4 30 11 43 47-54 114-88 187-95 3 0 6 1 8 3 2 3 3 5 2 8 0 4 0 8 0 12 0 50 41 90 93 90 24 0 48-9 65-25 3-3 6-4 9-3 18 4 36 10 52 19-4-10-10-19-17-27-3-3-3-8-1-11 3-4 7-6 11-4 6 1 12 3 18 5-11-15-25-28-40-39z m-349 9c-2 1-4 3-6 4-5 4-11 3-14-1-4-4-3-10 1-14 2-1 5-3 7-5 2-1 4-2 6-2 3 0 6 2 8 4 3 4 2 11-2 14z m129-48c-36 3-71 14-103 31-5 3-11 1-13-4-3-4-1-10 3-13 34-18 73-30 112-33 0 0 0 0 1 0 5 0 9 3 9 8 1 6-3 10-9 11z"/>
</font>
</defs>
</svg>
